<svg clip-rule="evenodd" fill-rule="evenodd" stroke-linejoin="round" stroke-miterlimit="2" viewBox="0 0 316 270" xmlns="http://www.w3.org/2000/svg"><g fill-rule="nonzero"><path d="M211.775 173.795c-21.263 0-40.263-9.694-52.818-24.903-12.556 15.21-31.555 24.903-52.819 24.903-37.81 0-68.461-30.652-68.461-68.461s30.652-68.462 68.461-68.462c21.264 0 40.263 9.693 52.819 24.903 12.555-15.21 31.555-24.903 52.818-24.903 37.81 0 68.461 30.652 68.461 68.462s-30.65 68.461-68.461 68.461m-.11-172.135c-19.269 0-37.306 5.262-52.765 14.42-15.456-9.158-33.493-14.42-52.762-14.42C48.882 1.66 2.465 48.076 2.465 105.334c0 57.256 46.417 103.671 103.673 103.671l.248-.002v58.125l35.266-34.99 16.623 23.326 17.686-23.326 35.704 34.99v-58.123c57.255 0 103.672-46.415 103.672-103.671 0-57.258-46.417-103.674-103.672-103.674"/><path d="M170.753 77.58c0 6.546-5.305 11.851-11.853 11.851-6.546 0-11.852-5.305-11.852-11.852s5.306-11.853 11.852-11.853c6.548 0 11.853 5.307 11.853 11.853" fill="#fbb040"/><path d="M183.078 120.494c0 13.283-10.77 24.053-24.053 24.053-13.285 0-24.054-10.77-24.054-24.053 0-13.285 10.769-24.056 24.054-24.056 13.283 0 24.053 10.77 24.053 24.056M46.57 105.333c0 13.284 10.768 24.055 24.053 24.055 13.283 0 24.053-10.771 24.053-24.055 0-13.285-10.77-24.054-24.053-24.054-13.285 0-24.053 10.77-24.053 24.054" fill="#f15a29"/><path d="M59.951 144.824c0 6.546 5.307 11.852 11.853 11.852 6.546 0 11.852-5.306 11.852-11.852s-5.306-11.853-11.852-11.853-11.853 5.307-11.853 11.853" fill="#ed1c24"/><path d="M62.258 64.634c0 6.545 5.307 11.853 11.853 11.853 6.546 0 11.85-5.308 11.85-11.853S80.658 52.78 74.112 52.78c-6.546 0-11.853 5.308-11.853 11.853" fill="#f15a29"/><path d="M106.144 106.09c0 6.547 5.306 11.853 11.854 11.853 6.546 0 11.854-5.306 11.854-11.852s-5.308-11.854-11.854-11.854c-6.548 0-11.854 5.307-11.854 11.854M90.756 67.345c0 13.285 10.77 24.055 24.054 24.055 13.284 0 24.054-10.77 24.054-24.055s-10.77-24.053-24.054-24.053c-13.284 0-24.054 10.768-24.054 24.053" fill="#ed1c24"/><path d="M87.393 144.449c0 13.283 10.768 24.051 24.053 24.051s24.055-10.768 24.055-24.051c0-13.287-10.77-24.055-24.055-24.055s-24.053 10.768-24.053 24.055" fill="#fbb040"/><path d="M269.983 105.334c0 13.283-10.77 24.053-24.054 24.053-13.286 0-24.056-10.77-24.056-24.053 0-13.287 10.77-24.055 24.056-24.055 13.284 0 24.054 10.768 24.054 24.055" fill="#ed1c24"/><path d="M256.6 144.824c0 6.546-5.307 11.852-11.853 11.852-6.544 0-11.852-5.306-11.852-11.852s5.308-11.853 11.852-11.853c6.546 0 11.853 5.307 11.853 11.853" fill="#fbb040"/><path d="M254.294 64.634c0 6.546-5.307 11.852-11.855 11.852-6.544 0-11.85-5.306-11.85-11.852s5.306-11.853 11.85-11.853c6.548 0 11.855 5.307 11.855 11.853" fill="#f15a29"/><path d="M210.406 106.091c0 6.547-5.305 11.852-11.853 11.852-6.546 0-11.852-5.305-11.852-11.852s5.306-11.853 11.852-11.853c6.548 0 11.853 5.307 11.853 11.853" fill="#fbb040"/><path d="M225.795 67.345c0 13.285-10.769 24.055-24.054 24.055-13.283 0-24.054-10.77-24.054-24.055s10.771-24.053 24.054-24.053c13.285 0 24.054 10.768 24.054 24.053" fill="#ed1c24"/><path d="M229.158 144.449c0 13.283-10.768 24.051-24.053 24.051-13.283 0-24.055-10.768-24.055-24.051 0-13.287 10.772-24.055 24.055-24.055 13.285 0 24.053 10.768 24.053 24.055" fill="#fbb040"/></g></svg>