<svg clip-rule="evenodd" fill-rule="evenodd" stroke-linejoin="round" stroke-miterlimit="2" viewBox="0 0 316 270" xmlns="http://www.w3.org/2000/svg"><g fill-rule="nonzero"><path d="m0 54.335c-14.661 0-27.762-6.684-36.419-17.171-8.657 10.487-21.757 17.171-36.419 17.171-26.07 0-47.205-21.135-47.205-47.205s21.135-47.205 47.205-47.205c14.662 0 27.762 6.683 36.419 17.171 8.657-10.488 21.758-17.171 36.419-17.171 26.071 0 47.205 21.135 47.205 47.205s-21.134 47.205-47.205 47.205m-.076-118.689c-13.286 0-25.723 3.628-36.382 9.943-10.657-6.315-23.094-9.943-36.38-9.943-39.479 0-71.484 32.004-71.484 71.484 0 39.479 32.005 71.483 71.484 71.483.058 0 .114-.002.171-.002v40.078l24.316-24.126 11.462 16.084 12.195-16.084 24.618 24.126v-40.076c39.478 0 71.483-32.004 71.483-71.483 0-39.48-32.005-71.484-71.483-71.484" transform="matrix(1.4503 0 0 1.4503 211.775 94.993)"/><path d="m-8.173-8.172c-4.514 0-8.172 3.658-8.172 8.173 0 4.513 3.658 8.172 8.172 8.172s8.173-3.659 8.173-8.172c0-4.515-3.659-8.173-8.173-8.173" fill="#fbb040" transform="matrix(0 -1.4503 -1.4503 0 158.901 65.726)"/><path d="m-16.586-16.584c-9.159 0-16.585 7.426-16.585 16.585 0 9.16 7.426 16.585 16.585 16.585 9.16 0 16.587-7.425 16.587-16.585 0-9.159-7.427-16.585-16.587-16.585" fill="#f15a29" transform="matrix(0 -1.4503 -1.4503 0 159.026 96.439)"/><path d="m16.585-16.585c9.159 0 16.586 7.425 16.586 16.585 0 9.159-7.427 16.585-16.586 16.585-9.16 0-16.586-7.426-16.586-16.585 0-9.16 7.426-16.585 16.586-16.585" fill="#f15a29" transform="matrix(0 1.4503 1.4503 0 70.623 81.28)"/><path d="m8.173-8.172c4.513 0 8.172 3.659 8.172 8.173 0 4.513-3.659 8.172-8.172 8.172-4.514 0-8.173-3.659-8.173-8.172 0-4.514 3.659-8.173 8.173-8.173" fill="#ed1c24" transform="matrix(0 1.4503 1.4503 0 71.803 132.971)"/><path d="m8.172-8.172c4.513 0 8.173 3.659 8.173 8.173 0 4.513-3.66 8.171-8.173 8.171s-8.173-3.658-8.173-8.171c0-4.514 3.66-8.173 8.173-8.173" fill="#f15a29" transform="matrix(0 1.4503 1.4503 0 74.11 52.782)"/><path d="m8.174-8.173c4.514 0 8.172 3.659 8.172 8.174 0 4.513-3.658 8.173-8.172 8.173s-8.173-3.66-8.173-8.173c0-4.515 3.659-8.174 8.173-8.174" fill="#ed1c24" transform="matrix(0 1.4503 1.4503 0 117.997 94.236)"/><path d="m16.585-16.586c9.16 0 16.586 7.426 16.586 16.585 0 9.16-7.426 16.586-16.586 16.586s-16.585-7.426-16.585-16.586c0-9.159 7.425-16.585 16.585-16.585" fill="#ed1c24" transform="matrix(0 1.4503 1.4503 0 114.811 43.292)"/><path d="m16.586-16.585c9.159 0 16.584 7.425 16.584 16.585s-7.425 16.586-16.584 16.586c-9.161 0-16.586-7.426-16.586-16.586s7.425-16.585 16.586-16.585" fill="#fbb040" transform="matrix(0 1.4503 1.4503 0 111.446 120.394)"/><path d="m-16.586-16.586c-9.159 0-16.585 7.426-16.585 16.585 0 9.161 7.426 16.587 16.585 16.587 9.161 0 16.586-7.426 16.586-16.587 0-9.159-7.425-16.585-16.586-16.585" fill="#ed1c24" transform="matrix(0 -1.4503 -1.4503 0 245.928 81.279)"/><path d="m-8.173-8.172c-4.513 0-8.172 3.659-8.172 8.173 0 4.512 3.659 8.172 8.172 8.172 4.514 0 8.173-3.66 8.173-8.172 0-4.514-3.659-8.173-8.173-8.173" fill="#fbb040" transform="matrix(0 -1.4503 -1.4503 0 244.748 132.971)"/><path d="m-8.173-8.172c-4.513 0-8.172 3.659-8.172 8.174 0 4.512 3.659 8.171 8.172 8.171 4.514 0 8.173-3.659 8.173-8.171 0-4.515-3.659-8.174-8.173-8.174" fill="#f15a29" transform="matrix(0 -1.4503 -1.4503 0 242.442 52.781)"/><path d="m-8.173-8.172c-4.514 0-8.172 3.658-8.172 8.173 0 4.513 3.658 8.172 8.172 8.172s8.173-3.659 8.173-8.172c0-4.515-3.659-8.173-8.173-8.173" fill="#fbb040" transform="matrix(0 -1.4503 -1.4503 0 198.554 94.238)"/><path d="m-16.585-16.586c-9.16 0-16.586 7.425-16.586 16.585 0 9.159 7.426 16.586 16.586 16.586s16.585-7.427 16.585-16.586c0-9.16-7.425-16.585-16.585-16.585" fill="#ed1c24" transform="matrix(0 -1.4503 -1.4503 0 201.74 43.292)"/><path d="m-16.586-16.585c-9.159 0-16.584 7.425-16.584 16.585 0 9.159 7.425 16.586 16.584 16.586 9.161 0 16.586-7.427 16.586-16.586 0-9.16-7.425-16.585-16.586-16.585" fill="#fbb040" transform="matrix(0 -1.4503 -1.4503 0 205.105 120.394)"/></g></svg>